# xmcd CD database file
#
# Track frame offsets:
#	183
#	10198
#	23683
#	36615
#	48160
#	57635
#	68828
#	82028
#	92320
#	100830
#	112810
#	121933
#	136630
#	145818
#	156430
#	165810
#
# Disc length: 2389 seconds
#
# Revision: 3
# Processed by: cddbd v1.5.2PL0 Copyright (c) Steve Scherf et al.
# Submitted via: CDex 1.51
#
DISCID=c3095310
DTITLE=Motown Music - Soul Sisters
DYEAR=1992
DGENRE=Soul
TTITLE0=Betty Everett - It`s In His Kiss
TTITLE1=Betty Everett - Chained To Your Love
TTITLE2=Ike and Tina Turner - A Fool In Love
TTITLE3=Irma Thomas - In Between Tears
TTITLE4=Irma Thomas - It Is Raining
TTITLE5=Mary Wells - The One Who Really Loves You
TTITLE6=Mary Wells - Two Lovers
TTITLE7=Chiffons - Sweet Talkin` Guy
TTITLE8=Chiffons - He`s So Fine
TTITLE9=Shirelles - Will You Love Me Tomorrow
TTITLE10=Shirelles - Dedicated To The One I Love
TTITLE11=Esther Williams - Release Me
TTITLE12=Esther Williams - I Really Don`t Want To Know
TTITLE13=Maxine Brown - Funny
TTITLE14=Gladys Knight and Pips - Every Beat Of My Heart
TTITLE15=Gladys Knight and Pips - It Hurts Me So Bad
EXTD=YEAR: 1992
EXTT0=
EXTT1=
EXTT2=
EXTT3=
EXTT4=
EXTT5=
EXTT6=
EXTT7=
EXTT8=
EXTT9=
EXTT10=
EXTT11=
EXTT12=
EXTT13=
EXTT14=
EXTT15=
PLAYORDER=
